<svg width="18" height="18" viewBox="0 0 18 18" fill="none" xmlns="http://www.w3.org/2000/svg">
<path d="M10.5 1.70215V4.80005C10.5 5.22009 10.5 5.43011 10.5817 5.59054C10.6537 5.73166 10.7683 5.8464 10.9095 5.91831C11.0699 6.00005 11.2799 6.00005 11.7 6.00005H14.7979M6.75 12L8.25 13.5L11.625 10.125M10.5 1.5H6.6C5.33988 1.5 4.70982 1.5 4.22852 1.74524C3.80515 1.96095 3.46095 2.30515 3.24524 2.72852C3 3.20982 3 3.83988 3 5.1V12.9C3 14.1601 3 14.7901 3.24524 15.2715C3.46095 15.6949 3.80515 16.039 4.22852 16.2547C4.70982 16.5 5.33988 16.5 6.6 16.5H11.4C12.6601 16.5 13.2901 16.5 13.7715 16.2547C14.1949 16.039 14.539 15.6949 14.7547 15.2715C15 14.7901 15 14.1601 15 12.9V6L10.5 1.5Z" stroke="#5A86EE" stroke-width="1.5" stroke-linecap="round" stroke-linejoin="round"/>
</svg>
