<svg width="18" height="18" viewBox="0 0 18 18" fill="none" xmlns="http://www.w3.org/2000/svg">
<path d="M3.75 3.7422C3.75 3.01382 3.75 2.64964 3.90187 2.44888C4.03417 2.27399 4.23639 2.16577 4.4553 2.1527C4.70658 2.13769 5.0096 2.33971 5.61564 2.74373L13.5023 8.00151C14.0031 8.33536 14.2535 8.50228 14.3407 8.71267C14.417 8.89661 14.417 9.10334 14.3407 9.28728C14.2535 9.49767 14.0031 9.66459 13.5023 9.99843L5.61564 15.2562C5.0096 15.6602 4.70658 15.8623 4.4553 15.8473C4.23639 15.8342 4.03417 15.726 3.90187 15.5511C3.75 15.3503 3.75 14.9861 3.75 14.2578V3.7422Z" stroke="#666666" stroke-width="1.5" stroke-linecap="round" stroke-linejoin="round"/>
</svg>
